<?xml version="1.0" encoding="utf-8"?>
<!-- Generator: Adobe Illustrator 27.0.0, SVG Export Plug-In . SVG Version: 6.00 Build 0)  -->
<svg version="1.1" id="レイヤー_1" xmlns="http://www.w3.org/2000/svg" xmlns:xlink="http://www.w3.org/1999/xlink" x="0px"
	 y="0px" viewBox="0 0 260.4 237.6" style="enable-background:new 0 0 260.4 237.6;" xml:space="preserve">
<style type="text/css">
	.st0{fill:#FCF3D3;}
	.st1{fill:#FFFFFF;}
	.st2{fill:#333161;}
</style>
<g>
	<path class="st0" d="M73.9,84.8l-8.7-14.7c0,0-4.8,4-6.8,8.3c-2,4.4-3.3,11.5-3.3,11.5s-13.4,10.3-18.6,17.9s-11.1,17.5-6.8,29.4
		s10.7,21.4,14.7,24.2s8.3,3.6,8.3,3.6s-14.3,16.3-17.1,22.2s-17.9,34.9-16.7,34.9c1.2,0,127.1,0,127.1,0s-1.6-21-2.8-24.6
		c-1.2-3.6-2.4-11.9-2.4-11.9s23.8,3.2,34.1,0c10.3-3.2,25.4-15.1,29-20.3c3.6-5.2,13.1-23.4,13.9-27.4c0.8-4,2.8-28.6,2.8-28.6
		s7.9-2,9.9-6.4c2-4.4,0.4-10.3-2.8-13.5c-3.2-3.2-6.4-5.6-9.1-5.6s-9.1,0.8-9.1,0.8s1.6-9.9-0.4-12.3c-2-2.4-4.4-8.3-6.4-6.8
		c-2,1.6-4.8,6.4-4.8,8.7c0,2.4-0.8,16.3-0.8,16.3s-5.6,4-5.6,6.8s4.4,9.1,4.4,9.1s3.2,6.8,2.8,9.5c-0.4,2.8-4,19.5-9.5,25.4
		c-5.6,6-13.9,15.5-20.3,19.1c-6.4,3.6-9.5,2.8-14.3,2.8c-4.8,0-13.1,0-15.1-0.4c-2-0.4-4.4-2.8-4.4-2.8s14.7-6.8,17.1-14.3
		c2.4-7.5,4.4-17.1,2-22.2c-2.4-5.2-6-18.7-9.5-22.2c-3.6-3.6-10.7-9.1-12.3-9.9s-4.8-2-4.8-2l-6.4-14.7l-5.6-7.1
		c0,0-7.5,10.7-8.7,13.9c-1.2,3.2-4.4,5.6-4.4,5.6L73.9,84.8z"/>
	<path class="st1" d="M90.6,128.9l-5.2,6.4c0,0,0.8,10.3,5.6,11.5c4.8,1.2,7.1-0.8,8.7-4.8s2-7.9,2-7.9L90.6,128.9z"/>
	<g id="rRJ0Yk.tif">
		<g>
			<path class="st2" d="M143.1,189.3c0.8,3.2,1.7,6.2,2.4,9.3c0.4,1.7,0.6,3.5,1,5.3c0.8,3.3,0.4,6.7,0.7,10.1
				c0.1,0.6,0.3,1.2,0.4,1.9c0.2,1.7-1,3.2-2.7,3.3c-1.6,0.1-3-1.3-2.9-3c0.2-2.6-0.1-5-0.8-7.5c-0.3-1.2-0.4-2.4-0.5-3.6
				c-0.3-2.4-0.5-4.7-0.8-7.1c-0.3-1.8-0.7-3.7-1.1-5.5c-0.4-1.9-0.8-3.9-1-5.8c-0.2-3.2,2.6-3.7,4.8-3.5c2.6,0.3,5.2,0.5,7.8,0.7
				c2.2,0.2,4.4,0.4,6.6,0.4c1.5,0,3.1,0.1,4.5-0.2c2.4-0.5,4.7-0.6,7.1-0.6c1.3,0,2.7-0.4,4-0.8c1.3-0.3,2.7-0.7,4-1.2
				c0.8-0.3,1.5-0.7,2.3-1c1.4-0.6,2.9-1,4.1-1.9c2.3-1.5,5-2.5,6.8-4.8c0,0,0.1-0.1,0.1-0.1c1.9-0.8,3-2.4,4.5-3.6
				c2.4-1.9,4.5-4,6.3-6.4c1.3-1.7,2.7-3.4,4.1-5.1c0.3-0.3,0.5-0.7,0.7-1.1c0.7-1.5,1.5-3,2.2-4.5c0.9-2,1.6-4.2,2.5-6.2
				c1.1-2.4,2.3-4.6,3.4-7c0.3-0.6,0.7-1.2,0.8-1.9c0.5-2,1.1-4,1.5-6c0.4-2.1,0.5-4.2,0.9-6.3c0.3-1.4,0.9-2.6,1.3-4
				c0.2-0.7,0.1-1.5,0-2.3c-0.2-1.9-0.6-3.8-0.6-5.8c0-0.6,0.8-1.2,1.2-1.9c-0.7-0.1-1.5-0.4-2.2-0.4c-1.5,0.1-2.6-0.6-3.3-1.8
				c-1.1-1.8-2.5-3.5-1.5-5.8c0.2-0.5,0.5-0.9,0.9-1.5c1.2,0.8,2.3,1.6,2.7,2.9c0.3,0.8,0.7,1.2,1.5,1.1c1,0,2-0.1,2.9-0.3
				c1.8-0.5,3.7-1,5.4-1.8c1.8-0.9,3.4-2.3,3.8-4.5c0.4-2.3,0-4.3-1.3-6.5c-1.4-2.4-3.4-4.1-5.5-5.7c-1.9-1.4-4.1-2.4-6.4-2.2
				c-1.7,0.1-3.5,0.3-4.8,1.6c-1.2,1.2-3.3,0.5-3.5-1.2c-0.2-2.2-0.1-4.5-0.2-6.8c0-0.7,0-1.3,0-2c-0.1-1.4,0-2.8-0.5-4.1
				c-0.5-1.5-1.4-2.9-2.2-4.3c-0.3-0.6-1.4-0.3-1.7,0.4c-0.6,1.4-1.1,2.8-1.4,4.3c-0.5,2.4-1,4.8-1.3,7.2c-0.2,1.8-0.1,3.7,0.1,5.5
				c0.1,1,1.1,0.7,1.8,0.6c1.4-0.2,2.7,0,3.9,0.8c0.4,0.2,0.7,0.5,1,0.9c1.8,2.3,2.7,4.8,2.2,7.8c-0.3,1.5-0.4,2.9-1.6,4
				c-0.9,0.8-1.8,1.1-2.8,0.6c-1.1-0.5-1.3-1.5-1.2-2.6c0.2-1.6,0.3-3.2,0.5-4.7c0.1-0.9,0.1-2-0.8-2.3c-0.8-0.2-1.7,0.1-2.6,0.4
				c-2,0.7-3.1,2.5-4.5,3.9c-0.7,0.6-1.1,1.7-1.4,2.6c-0.2,0.4,0,1.1,0.2,1.5c0.6,1.1,1.2,2.1,1.9,3.1c0.4,0.5,1.2,0.8,1.5,1.3
				c0.7,1.5,1.9,2,3.4,2.4c1,0.2,1.6,1.1,1.4,2.1c-0.1,0.5-1,0.8-1.5,1.2c2.1,1.9,1.7,4.4,1.1,7c-0.1,0.3-0.2,0.6-0.2,0.9
				c0.4,2.7-0.7,5-1.6,7.3c-0.9,2.2-1.5,4.5-2.3,6.7c0,0.1,0,0.2-0.1,0.3c-1.1,2-2.2,4.1-3.4,6c-0.9,1.5-1.9,2.9-3.1,4.2
				c-2.7,3-4.7,6.7-8.1,9.1c-0.9,0.7-1.5,1.8-2.3,2.6c-1,1-2.2,1.8-3.2,2.8c-1.4,1.2-2.7,2.7-4.3,3.8c-1.8,1.3-3.7,2.6-5.8,3.5
				c-2.6,1.2-5.4,2-8.2,2.3c-1.3,0.1-2.6,0-3.9,0c-1.7,0-3.3,0.2-5,0.1c-1.5-0.1-3-0.6-4.6-0.8c-1-0.1-2-0.3-3-0.2
				c-3.1,0.4-5.9-0.5-8.6-1.6c-1-0.4-1.8-0.9-2.9-1c-0.5-0.1-1.1-0.6-1.2-1c-0.1-0.4,0.2-1.1,0.6-1.4c1.5-1.1,3.1-2,4.6-3
				c2.4-1.7,4.8-3.4,7-5.3c2-1.8,3.9-3.8,5.6-6c1.3-1.7,2.2-3.8,2.9-5.8c0.9-2.9,1.6-6,1.3-9c-0.3-2.8-0.4-5.8-1.3-8.5
				c-0.8-2.5-1-5.3-2.8-7.5c-1.2-1.6-1.5-3.8-2.5-5.5c-1.2-2.1-2.7-4-4.1-5.9c-1.2-1.6-2.5-3.1-3.9-4.5c-0.6-0.6-1.3-1.1-1.9-1.7
				c-1.5-1.7-3.5-2.9-5.4-4c-0.8-0.5-1.9-0.8-2.9-1c-1-0.2-2.2-0.2-3.2-0.5c-0.6-0.2-1.3-0.7-1.4-1.2c-0.1-0.6,0.4-1.4,0.9-1.7
				c1.2-0.8,2.6-1.1,4-0.7c2.7,0.9,5.5,1.6,8.1,3.2c3.7,2.2,6.6,5.1,9.4,8.2c1.2,1.3,2.1,2.9,3,4.4c1.6,2.5,3.2,4.9,4.7,7.5
				c0.4,0.6,0.6,1.4,0.9,2.1c0.6,1.6,1.3,3.2,1.8,4.8c0.6,2,1.1,4.1,1.5,6.2c0.1,0.7,0.3,1.1,1,1.1c1,0,2.1,0,3.1,0.1
				c2.3,0.1,4.5,0.2,6.7,0.4c1.5,0.1,3,0.4,4.5,0.8c0.5,0.2,1.3,0.9,1.3,1.4c0,0.5-0.8,1.3-1.3,1.4c-1.9,0.4-3.8,0.5-5.8,0.7
				c-0.3,0-0.7-0.1-1,0c-2.4,0.7-4.7,0.4-7.1-0.2c-0.3-0.1-0.5,0-1,0c0,1,0.1,2,0.1,3c0,1.5-0.1,3.1-0.2,4.6c-0.1,0.6,0,1,0.6,1.4
				c1.9,1.1,3.8,2.1,5.5,3.3c1.9,1.5,4.3,2.4,5.5,4.8c0.2,0.4,1,0.6,1.5,0.9c-0.1,0.2-0.1,0.3-0.1,0.3c-2.6,0-5.1,0.6-7.5-1
				c-2-1.4-4.2-2.6-6.3-3.8c-0.2-0.1-0.5-0.2-0.8-0.3c-3.7,8-9.8,13.7-17.7,17.7c0.5,0,0.8,0,1.2,0c2.9-0.2,5.8,0.1,8.7,0.8
				c0.6,0.1,1.2,0.2,1.9,0.3c3.6,0.2,7.1-0.5,10.6-0.7c2.7-0.2,5.3-0.8,7.5-2.5c2.3-1.7,4.4-3.7,6.5-5.6c1.6-1.4,3.2-2.9,4.7-4.3
				c1.3-1.2,2.4-2.6,3.6-3.9c1.1-1.2,2.2-2.3,3.1-3.6c0.9-1.1,1.7-2.4,2.6-3.6c0.7-1.1,1.2-2.2,2-3.3c0.9-1.3,1.5-2.7,2.1-4.2
				c0.8-2,1.6-4,2.3-6c0.7-1.9,1.7-3.6,1.6-5.7c0-1,0.7-2,0.5-3c-0.2-1.4-0.8-2.7-1.3-4c-0.4-1-0.8-2.1-1.1-3.1
				c-0.1-0.2-0.1-0.4-0.2-0.5c-2-1.8-3.1-4.3-4.2-6.5c-1.4-2.8-1.1-5.7,1.1-8.2c1.2-1.3,2.4-2.5,3.6-3.8c0.2-0.2,0.2-0.5,0.2-0.8
				c0-2.1-0.2-4.3-0.1-6.4c0-1.9,0.2-3.9,0.4-5.8c0.5-4.1,1.6-8,4.2-11.2c1.7-2.2,3.2-2.4,5.7-1.2c0.8,0.4,1.5,0.8,2.3,1.3
				c1.6,0.9,1.9,2.6,2.4,4c0.9,2.7,1.9,5.3,1.5,8.3c-0.3,1.9,0,3.8,0,5.8c1.1-0.4,2.1-1,3.1-1.1c1.6-0.1,3.4-0.2,4.9,0.2
				c3.2,0.9,6,2.6,8.4,5c3.7,3.6,5.7,7.9,5.5,13.1c-0.1,2.4-1,4.5-3.1,6c-1,0.7-1.7,1.6-3,1.8c-0.4,0.1-0.8,0.8-1.3,1.3
				c-1.4,0.1-2.5,1.2-3.7,2.2c-0.2,0.2-0.3,0.5-0.3,0.7c0.2,1.6,0.5,3.2,0.8,4.8c0.1,0.5,0,1-0.1,1.5c-0.1,1.2-0.2,2.4-0.4,3.5
				c-0.3,1.6-0.6,3.2-0.9,4.8c-0.2,0.8-0.5,1.6-0.6,2.4c-0.4,2.5-0.6,5.1-1,7.5c-0.2,1.2-0.9,2.2-1.5,3.3c-0.8,1.6-1.6,3.2-2.4,4.9
				c-0.1,0.2-0.3,0.4-0.3,0.6c-0.8,4.1-3.3,7.5-4.7,11.3c-0.1,0.1-0.1,0.3-0.2,0.4c-2.2,2-2.9,5.2-5,7.3c-1.7,1.6-2.9,3.8-4.5,5.4
				c-2,1.9-4.2,3.6-6.4,5.3c-0.2,0.1-0.4,0.1-0.5,0.3c-1.2,2.2-3.6,2.7-5.4,4c-2.4,1.8-5,3.2-7.6,4.5c-1.7,0.8-3.6,1.2-5.4,1.7
				c-1.6,0.5-3.2,1.1-4.9,1.4c-1.8,0.3-3.6,0.2-5.3,0.3c-1.2,0.1-2.3,0.4-3.5,0.5c-1.3,0.1-2.6-0.1-3.8,0c-2.1,0.1-4.3,0.4-6.4,0.5
				c-1.8,0.1-3.7,0.1-5.5,0.1C145.9,189.3,144.7,189.3,143.1,189.3z"/>
			<path class="st2" d="M55.1,90c-1.6-2.1-0.8-4.6-0.2-6.9c0.5-2.1,1.6-4.1,2.5-6.1c0.5-1.2,1-2.4,1.6-3.4c0.9-1.5,1.7-2.9,2.8-4.3
				c1-1.3,3.6-1.3,4.9-0.1c1.8,1.7,3.6,3.4,4.7,5.8c1.1,2.7,2.6,5.3,3.9,7.9c0.2,0.3,0.7,0.6,1.2,0.7c2,0.1,4,0.2,6.1,0.2
				c1.3,0,2.7,0,4,0c3.5,0,6.9-0.1,10.4,0c2,0,4,0.3,6,0.3c0.4,0,0.9-0.4,1.1-0.8c1-2,1.8-4.1,2.7-6.1c0.7-1.6,1.6-3.1,2.4-4.7
				c1.1-2,2.1-3.9,3.2-5.8c1-1.6,2.7-2.2,4.4-2.2c1.5,0,2.6,1,3.4,2.4c0.4,0.8,1,1.7,1.6,2.4c2.2,2.4,3.4,5.2,3.9,8.4
				c0.2,1.2,1,2.3,1.3,3.6c0.3,1.5,0.5,3,0.6,4.6c0,0.5-0.6,1.3-1,1.4c-0.5,0.1-1.5-0.1-1.8-0.5c-0.9-1.3-1.7-2.7-2.4-4.2
				c-1.2-2.5-2.4-5-3.5-7.5c-0.4-1-0.7-2.1-1.2-3c-0.6-1-1.3-1.9-2.2-3.1c-1.2,2.4-2.1,4.4-3.1,6.3c-1.5,3.1-3.1,6.2-4.6,9.4
				c-0.2,0.3-0.2,0.7-0.2,1.1c-0.1,0.3,0,0.8-0.2,1c-1.1,0.7-2.3,1.4-3.4,2.1c-0.1,0-0.2,0-0.2,0c-1.8-1-3.8-0.3-5.7-0.4
				c-2-0.1-4,0.1-6,0.1c-1.3,0-2.7,0-4-0.1c-2.2-0.1-4.3-0.1-6.5-0.4c-1.5-0.2-2.9-0.7-4.4-1.1c-0.3-0.1-0.7-0.1-0.9,0
				c-1.4,0.9-2.7,0.9-3.7-0.3c-1-1.2-1.8-2.6-2.6-4c-1.1-1.9-2-4-3-5.9c-0.4-0.8-0.8-1.6-1.2-2.3c-0.3-0.6-0.7-1.1-1.3-2
				c-1,1.5-2.1,2.7-2.7,4.1c-1,2.3-1.6,4.7-2.6,7c-0.9,2-1,4.1-1.2,6.3c-0.1,1.6-0.5,1.9-2.1,1.4c0.2,1.2-0.6,1.7-1.3,2.3
				c-2.2,1.9-4.4,3.8-6.5,5.7c-1.3,1.1-2.5,2.2-3.7,3.3c-1.1,1-2.3,2-3.2,3.2c-1.9,2.4-3.8,4.9-5.5,7.6c-1.5,2.4-2.8,5-3.4,7.8
				c-0.3,1.6-0.3,3.3-0.5,5c0,0.5,0,1.1-0.1,1.5c-0.4,1.5,0,2.9,0.3,4.3c0.8,3.4,1.3,6.9,2.5,10.2c1,2.8,2.7,5.3,4.1,7.9
				c0.3,0.6,0.9,1,1.1,1.5c0.8,1.8,1.9,3.1,3.6,4.2c1.4,0.8,2.3,2.3,3.6,3.2c2.6,1.9,4.9,4.2,8.1,5.2c2,0.6,3.8,1.7,5.8,2.6
				c0.3,0.1,0.6,0.3,0.9,0.4c1.2,0.2,2.1,0.8,2.7,2c-0.5,1.1-1.5,1.8-2.7,1.7c-2-0.2-3.9-0.5-5.9-0.9c-1.5-0.4-2.4,0.7-3.2,1.5
				c-2.1,2.1-4.1,4.4-6,6.7c-2,2.4-3.8,5-5.5,7.6c-1.6,2.5-3,5.2-4.5,7.8c-0.7,1.3-1.6,2.5-2.3,3.8c-1.3,2.2-2.6,4.4-3.8,6.7
				c-1.2,2.4-2.3,4.8-3.5,7.2c-1,2.2-2,4.5-3.1,6.7c-0.5,1-1.2,2-1.9,2.9c-0.7,1-2.1,1.2-3.2,0.6c-1.1-0.6-1.5-1.8-1.2-3
				c0.8-2.7,2.2-5.1,3.6-7.5c1.1-1.9,1.9-3.9,2.9-5.9c0.5-1,1.2-1.9,1.8-2.8c0.2-0.4,0.4-0.8,0.6-1.3c0.3-0.6,0.6-1.1,0.9-1.7
				c0.1-0.2,0.4-0.4,0.5-0.7c0.7-1.2,1.3-2.5,2-3.8c1.6-2.7,3.2-5.4,4.9-8c1.8-2.8,3.5-5.5,5.4-8.2c1-1.4,2.1-2.7,3.2-3.9
				c1.3-1.5,2.7-2.9,4.1-4.3c0.9-0.9,2-1.6,3.2-2.6c-1.1-0.5-2.1-0.9-3.1-1.4c-1.1-0.6-2.3-1.3-3.3-2.1c-1.4-1-2.7-2.1-4-3.3
				c-0.7-0.6-1.3-1.4-2-2.2c-0.8-1-1.7-2-2.4-3.1c-0.8-1-1.4-2.1-2.1-3.1c-1-1.4-1.9-2.9-3-4.3c-0.1-0.2-0.7-0.1-1.1,0
				c-2.2,0.9-4.4,2.1-6.7,2.7c-2,0.5-4.1,0.4-6.1,0.4c-0.5,0-1.1-0.2-1.4-0.6c-0.5-0.6-1-1.3-1-2c0-0.9,0.9-1.1,1.7-1.2
				c2.1-0.3,4.3-0.4,6.4-0.9c2.4-0.5,4.8-1.4,7.1-2.1c-1-2.9-2-5.6-2.9-8.3c-2.1,0.3-4.2,0.7-6.4,0.8c-2.8,0.1-5.6,0.4-8.3-0.7
				c-0.4-0.2-0.9-0.6-0.9-0.9c0-0.3,0.5-0.8,0.9-0.9c2-0.7,3.9-1,6.1-0.8c2,0.2,4,0,6,0c0.7,0,1.4,0.1,2.3,0.2
				c-0.1-2.3-0.3-4.5-0.3-6.8c0-3.3,0.5-6.6,1.6-9.7c1.5-4.2,4.1-7.8,7.1-11.2c1-1.1,2.2-2.1,3-3.2c1.9-2.5,4.8-3.9,6.7-6.4
				c0.7-1,1.9-1.6,2.8-2.4c1.7-1.5,3.4-3.2,5.7-3.7C53.4,90.2,54.2,90.1,55.1,90z"/>
			<path class="st2" d="M83.4,137.2c-3,0.5-6.5-1.3-7.6-4.1c-0.3-0.8-0.2-2,0.1-2.9c0.3-0.8,1.2-1,1.9-0.4c0.6,0.4,1.2,1,1.6,1.6
				c0.6,0.9,1.4,1.3,2.4,1.1c1.6-0.4,3.2-0.7,4.2-2.2c0.6-0.9,1.2-1.8,1.6-2.9c0.5-1.4,1.6-2.8,2.8-3.7c1.4-1.2,3.1-0.4,3.3,1.5
				c0.2,1.5,0.9,2.4,2,3.2c0.2,0.1,0.4,0.2,0.4,0.4c0.7,1.6,2.1,1.6,3.5,1.9c1.7,0.3,3.2-0.3,4.4-1.5c1-1,2.1-1.1,3-0.3
				c0.9,0.8,0.9,1.9,0,3c-0.7,0.8-1.5,1.5-2,2.5c-0.4,0.8-0.3,1.8-0.4,2.7c-0.2,2.1-0.5,4.1-1.8,5.9c-0.4,0.7-0.7,1.4-1.2,2.1
				c-0.5,0.7-1.1,1.4-1.7,2.1c-0.1,0.1-0.4,0.2-0.5,0.4c-1.6,2.6-4.3,2.8-6.8,2.7c-1.4,0-2.9-0.7-4-1.6c-3.1-2.6-5-5.9-5.2-10
				C83.6,138.1,83.4,137.6,83.4,137.2z M91.4,130.6c-0.1,2.4-2.2,3.3-3.9,4.5c-0.3,0.2-0.6,0.9-0.5,1.2c0.5,1.6,1,3.2,1.6,4.8
				c0.4,1.2,1.1,2.2,2.1,3.1c1.6,1.5,4.9,1.5,6.2-0.1c1.5-1.9,2.4-4.1,3.3-6.3c0.6-1.6,0.1-3-1.3-2.8c-1.9,0.3-3.1-0.8-4.4-1.8
				C93.5,132.4,92.6,131.5,91.4,130.6z"/>
			<path class="st2" d="M117.3,113c1.7,1,3.4,1.9,4.9,3c1.1,0.8,1.2,2,0.6,2.8c-0.6,0.9-1.6,0.9-2.9,0.4c-2-0.7-4.1-1.4-6.1-1.9
				c-2.1-0.6-4.3-0.9-6.4-1.4c-0.6-0.1-1.2-0.5-1.7-0.9c-0.9-0.8-1-2.1,0-2.8c0.8-0.6,1.9-1,2.8-1.4c1.5-0.5,3-1,4.5-1.4
				c2.1-0.6,4.2-1.1,6.3-1.6c1-0.3,1.9-0.1,2.4,1c0.4,0.9,0,1.9-1.1,2.5C119.5,112,118.3,112.5,117.3,113z"/>
			<path class="st2" d="M67.9,113.1c-1.4-0.4-2.8-0.8-4.2-1.1c-0.2-0.1-0.5,0-0.7-0.1c-1.4-0.2-2.1-1-1.9-2.1
				c0.2-1.1,1.1-1.5,2.5-1.4c3.3,0.2,6.5,1.1,9.6,2.1c1.3,0.4,2.6,1,3.8,1.8c0.6,0.4,1.1,1.5,1,2.2c-0.1,0.7-0.8,1.6-1.4,1.8
				c-1.4,0.5-3,0.5-4.4,0.8c-1.8,0.4-3.5,0.9-5.3,1.3c-1.2,0.3-2.4,0.7-3.6,0.7c-1.2,0-1.7-0.9-1.3-2c0.7-1.9,2.2-2.7,4-3.1
				c0.6-0.1,1.2-0.3,1.8-0.4C67.9,113.4,67.9,113.2,67.9,113.1z"/>
			<path class="st2" d="M210.5,20.1c-0.2,2.3-0.2,4.6-0.5,6.9c-0.5,3.8-1.2,7.6-1.9,11.3c-0.2,1.2-1,2-2,2c-1.1,0-1.8-0.7-2.1-1.9
				c-0.6-3.2,0-6.2,0.6-9.3c0.1-0.7,0.1-1.4,0.2-2.1c0-0.2-0.1-0.3,0-0.5c0.8-2.4,0.9-5,1.1-7.5c0-0.5,0.4-1.1,0.7-1.5
				c1-1.4,2.8-1.3,3.5,0.2c0.4,0.7,0.5,1.6,0.7,2.4C210.7,20,210.6,20.1,210.5,20.1z"/>
			<path class="st2" d="M234.7,22.1c-0.3,3-1.7,5.5-2.9,8c-0.2,0.5-0.4,0.9-0.7,1.4c-1.7,2.8-3.3,5.6-5.2,8.2
				c-0.8,1.1-2,1.1-2.9,0.5c-1-0.8-1.2-1.8-0.7-2.9c0.4-0.9,0.9-1.7,1.3-2.5c1-1.9,2.1-3.8,3.1-5.8c0.7-1.4,1-3,1.8-4.4
				c0.7-1.4,1.8-2.6,2.8-3.8c0.5-0.7,1.4-1.3,2.2-0.7C234.1,20.5,234.3,21.4,234.7,22.1z"/>
			<path class="st2" d="M191.3,38.6c0-1.4,0.1-2.8,0-4.3c-0.2-2.6-0.2-5.3-0.7-7.9c-0.3-1.7-0.3-3.3-0.1-4.9
				c0.1-0.9,0.3-1.7,1.3-2.1c1.3-0.6,2.6,0.2,2.7,1.7c0.4,3.5,0.9,7,1.3,10.6c0.1,0.8-0.2,1.6-0.2,2.5c0,1.7,0.1,3.4,0.2,5.1
				c0,1.8-0.9,2.9-2.3,2.9c-1.5,0-2.3-1.1-2.3-2.9C191.3,39.1,191.3,38.8,191.3,38.6C191.3,38.6,191.3,38.6,191.3,38.6z"/>
			<path class="st2" d="M43.9,217.6c0.2-4.8,2.1-8.7,5.7-11.9c0.9-0.8,2.1-0.9,2.7-0.2c0.8,0.8,0.7,1.8,0.2,2.8
				c-0.8,1.7-1.9,3.2-2.7,4.9c-0.7,1.5-1.1,3.1-1.7,4.7c-0.1,0.5-0.1,1-0.3,1.4c-0.4,1-1.2,1.5-2.3,1.3c-1-0.1-1.6-0.8-1.8-1.8
				C43.8,218.4,43.9,218,43.9,217.6z"/>
			<path class="st2" d="M94.5,119.6c0,0.1,0,0.2,0,0.4c-0.2,1.1-1.5,2.4-2.6,2.5c-2.1,0.2-3.9-0.8-4.5-2.4c-0.4-1.3,0.1-2.6,1.4-3.5
				c0.9-0.6,1.8-0.5,2.6,0C92.5,117.4,94.6,117.4,94.5,119.6z"/>
		</g>
	</g>
</g>
</svg>
